<svg width="16" height="16" viewBox="0 0 16 16" fill="none" xmlns="http://www.w3.org/2000/svg">
<path d="M0.323833 10.4774C-0.275817 10.8968 -0.0759336 11.6935 1.20332 12.071C2.52255 12.5323 3.96171 12.6581 5.36089 12.4065C5.44085 12.4065 5.5208 12.3645 5.56078 12.3645V10.9387L4.20157 11.4C3.68187 11.5677 3.16218 11.6097 2.64248 11.4839C2.24271 11.3581 2.32267 11.1065 2.80239 10.8968L5.56078 9.89032V8.33871L1.72302 9.72258C1.2433 9.89032 0.763577 10.1419 0.323833 10.4774ZM9.59842 4.1871V8.25484C11.2375 9.09355 12.5167 8.25484 12.5167 6.07419C12.5167 3.85161 11.7572 2.84516 9.55844 2.04839C8.39912 1.62903 7.19982 1.25161 6.00052 1V13.1194L8.79889 14V3.80968C8.79889 3.34839 8.79889 3.0129 9.1187 3.13871C9.55844 3.26452 9.59842 3.72581 9.59842 4.1871ZM14.7954 9.5129C13.6361 9.09355 12.3968 8.92581 11.1975 9.05161C10.5579 9.09355 9.95821 9.26129 9.39854 9.47097L9.27861 9.5129V11.1484L11.8771 10.1419C12.3968 9.97419 12.9165 9.93226 13.4362 10.0581C13.8359 10.1839 13.756 10.4355 13.2763 10.6452L9.27861 12.1968V13.7903L14.7954 11.6516C15.1952 11.4839 15.5549 11.2742 15.8748 10.9387C16.1546 10.5194 16.0347 9.93226 14.7954 9.5129Z" fill="black"/>
</svg>
